<svg xmlns="http://www.w3.org/2000/svg" width="414" height="366" fill="none"><path fill="#90CAF9" d="M142.308 36.272s-59.386 30.253-89.005 76.872c-29.618 46.618-27.275 106.592 8.716 151.109 35.99 44.518 104.781 38.671 162.38 66.871 57.599 28.2 121.147 22.392 148.383-37.354 27.236-59.746-13.834-82.076-20.888-151.22-7.054-69.143-69.386-170.39-209.586-106.278Z"/><path fill="#fff" d="M142.308 36.272s-59.386 30.253-89.005 76.872c-29.618 46.618-27.275 106.592 8.716 151.109 35.99 44.518 104.781 38.671 162.38 66.871 57.599 28.2 121.147 22.392 148.383-37.354 27.236-59.746-13.834-82.076-20.888-151.22-7.054-69.143-69.386-170.39-209.586-106.278Z" opacity=".7"/><path fill="#9C9C9C" d="M108.067 276.543c2.351-.784 6.521-4.617 6.521-4.624 0-.008-3.354-1.952-3.582-2.046-2.641-1.113-8.402-1.709-10.494.729a3.811 3.811 0 0 0 .893 5.565c1.85 1.316 4.624 1.034 6.662.376ZM151.49 239.596c.055 0-1.724-3.472-1.865-3.684-1.568-2.351-6.066-6.058-9.154-5.18a3.813 3.813 0 0 0-2.352 5.149c.839 2.101 3.308 3.402 5.377 3.974 2.43.674 7.986-.251 7.994-.259Z"/><path fill="#9C9C9C" d="M120.363 287.445c2.022-1.325 4.812-5.753 5.031-6.105a67.21 67.21 0 0 0 7.885 4.279c1.568.737 3.198 1.434 4.828 2.108a60.482 60.482 0 0 0-1.567-.384c-2.846-.376-8.559.572-9.931 3.472a3.8 3.8 0 0 0 2.352 5.157c2.131.784 4.702-.243 6.528-1.418 1.826-1.176 4.272-4.93 4.907-5.925l1.881.783c3.017 1.199 6.027 2.352 8.95 3.637 1.027.439 2.022.917 3.026 1.379-.706-.172-1.294-.313-1.388-.321-2.845-.376-8.551.572-9.93 3.472a3.79 3.79 0 0 0 .968 4.374c.401.353.873.617 1.383.775 2.14.784 4.742-.243 6.529-1.418 1.787-1.176 4.029-4.562 4.797-5.737 1.003.509 2.014 1.019 2.97 1.567.643.384 1.293.706 1.92 1.129l1.866 1.199a125.33 125.33 0 0 1 3.464 2.445c.784.565 1.505 1.113 2.242 1.662-1.019-.447-3.034-1.293-3.214-1.34-2.751-.784-8.543-.729-10.338 1.928a3.8 3.8 0 0 0-.458 3.063 3.788 3.788 0 0 0 1.979 2.384c1.991 1.074 4.702.478 6.67-.415 2.139-.98 5.486-4.766 5.862-5.244 1.215.917 2.391 1.818 3.48 2.688a188.34 188.34 0 0 1 7.838 6.553l1.567-1.427a199.065 199.065 0 0 0-8.284-6.63 255.916 255.916 0 0 0-3.919-2.9 41.844 41.844 0 0 0 1.913-4.46c2.406.243 6.936-1.003 7.524-1.168a189.413 189.413 0 0 1 4.303 13.81l1.755-1.567a204.488 204.488 0 0 0-2.837-8.708 154.697 154.697 0 0 0-1.693-4.585c.541-.306 4.899-2.845 6.27-4.757 1.246-1.74 2.351-4.303 1.677-6.474a3.79 3.79 0 0 0-.729-1.403 3.783 3.783 0 0 0-1.236-.986 3.788 3.788 0 0 0-1.53-.399 3.795 3.795 0 0 0-1.56.256c-2.955 1.262-4.13 6.929-3.872 9.781 0 .173.392 1.983.643 3.136-.251-.651-.486-1.278-.784-1.936-.517-1.317-1.074-2.61-1.661-4.005-.314-.667-.62-1.333-.941-2.007-.321-.674-.697-1.356-1.05-2.045a80.984 80.984 0 0 0-2.751-4.703c1.152-.455 5.204-2.132 6.709-3.668s2.978-3.919 2.633-6.137a3.785 3.785 0 0 0-1.574-2.663 3.782 3.782 0 0 0-3.034-.605c-3.135.784-5.134 6.223-5.306 9.084 0 .172.094 2.241.172 3.378-.596-.925-1.183-1.85-1.81-2.767-1.819-2.641-3.747-5.259-5.651-7.877-.588-.784-1.16-1.607-1.732-2.414.407-.157 5.266-2.046 6.952-3.762 1.497-1.567 2.978-3.919 2.641-6.145a3.789 3.789 0 0 0-1.58-2.663 3.805 3.805 0 0 0-3.037-.605c-3.135.784-5.133 6.223-5.306 9.084 0 .219.141 3.19.22 3.919-1.27-1.779-2.516-3.559-3.676-5.361a65.525 65.525 0 0 1-4.248-7.564c.188-.07 5.267-2.022 6.991-3.785 1.497-1.568 2.978-3.919 2.641-6.137a3.79 3.79 0 0 0-4.608-3.268c-3.135.783-5.134 6.223-5.306 9.083 0 .189.102 2.454.18 3.527l-.172.047a48.403 48.403 0 0 1-2.838-8.253 61.522 61.522 0 0 1-.956-4.53c.98-.266 5.487-1.528 7.195-2.947 1.709-1.418 3.386-3.55 3.3-5.815a3.81 3.81 0 0 0-4.232-3.755c-3.175.447-5.785 5.62-6.271 8.449 0 .149-.125 1.74-.18 2.9-.102-.666-.227-1.348-.313-1.99-.337-2.407-.502-4.625-.635-6.592a98.068 98.068 0 0 1-.118-3.088c.823-.784 4.131-3.919 4.993-5.902.862-1.983 1.371-4.702.251-6.677a3.808 3.808 0 0 0-4.017-1.978 3.807 3.807 0 0 0-1.47.59c-2.618 1.866-2.547 7.658-1.677 10.393.078.235 1.669 3.794 1.716 3.754l.047-.047c0 .91 0 1.889.063 2.963.086 1.975.196 4.209.486 6.631.283 2.609.717 5.2 1.301 7.759a49.018 49.018 0 0 0 2.681 8.394l.047.094c-.612-.713-2.391-2.649-2.548-2.782-2.163-1.881-7.453-4.24-10.189-2.579a3.801 3.801 0 0 0-1.125 1.113 3.805 3.805 0 0 0-.493 3.057c.137.515.381.996.717 1.411 1.364 1.81 4.084 2.414 6.231 2.421 2.414 0 7.179-2.155 7.563-2.351a67.377 67.377 0 0 0 4.217 7.924 117.018 117.018 0 0 0 2.861 4.413 56.723 56.723 0 0 0-1.121-1.2c-2.163-1.873-7.454-4.24-10.189-2.578a3.801 3.801 0 0 0-1.698 2.589 3.795 3.795 0 0 0 .797 2.991c1.356 1.819 4.083 2.414 6.231 2.422 2.147.008 6.27-1.756 7.351-2.234.384.557.784 1.121 1.153 1.678 1.849 2.657 3.707 5.314 5.486 7.963.619.94 1.191 1.881 1.763 2.821a29.547 29.547 0 0 0-.972-1.034c-2.163-1.881-7.453-4.241-10.188-2.579a3.778 3.778 0 0 0-1.123 1.115 3.782 3.782 0 0 0-.49 3.056c.138.515.383.995.719 1.409 1.356 1.811 4.083 2.414 6.223 2.422 2.14.008 5.878-1.567 7.164-2.147.564.979 1.128 1.959 1.622 2.939.329.674.69 1.301.972 1.998.282.698.604 1.364.893 2.03.526 1.317 1.066 2.665 1.568 3.958.337.894.643 1.756.948 2.618-.595-.94-1.818-2.751-1.936-2.892a14.717 14.717 0 0 0-6.27-4.044 4.297 4.297 0 0 0-.595-.596 3.812 3.812 0 0 0-2.956-.913 3.814 3.814 0 0 0-1.497.511c-.457.274-.852.64-1.159 1.076-1.771 2.681.376 8.057 2.171 10.299.102.133 1.411 1.434 2.249 2.242l-1.771-1.153c-1.152-.783-2.351-1.567-3.59-2.421l-1.888-1.16c-.627-.4-1.333-.745-2.007-1.121a62.946 62.946 0 0 0-4.867-2.351c.705-1.012 3.135-4.64 3.566-6.757.431-2.116.329-4.89-1.183-6.575a3.796 3.796 0 0 0-2.786-1.35 3.808 3.808 0 0 0-2.865 1.169c-2.156 2.352-.847 8.018.58 10.503.094.157 1.316 1.818 2.014 2.72-1.003-.439-2.007-.886-3.033-1.302a291.827 291.827 0 0 0-9.061-3.456c-.932-.345-1.857-.705-2.782-1.058.259-.353 3.268-4.609 3.723-6.976.407-2.1.337-4.89-1.184-6.575a3.793 3.793 0 0 0-4.342-1.07c-.494.201-.94.504-1.309.889-2.155 2.352-.846 8.018.588 10.503.102.188 1.874 2.578 2.352 3.135-2.038-.784-4.06-1.568-6.028-2.438a65.468 65.468 0 0 1-7.712-3.965c.118-.165 3.284-4.593 3.747-7.015.399-2.101.329-4.891-1.184-6.576a3.806 3.806 0 0 0-4.342-1.07 3.81 3.81 0 0 0-1.309.89c-2.155 2.351-.846 8.018.58 10.502.094.165 1.442 1.991 2.108 2.845l-.125.134a48.829 48.829 0 0 1-6.913-5.322 54.336 54.336 0 0 1-3.307-3.253c.674-.784 3.715-4.287 4.381-6.427.666-2.139.862-4.828-.455-6.662a3.799 3.799 0 0 0-2.627-1.638 3.812 3.812 0 0 0-2.976.855c-2.399 2.131-1.717 7.884-.573 10.51.063.141.863 1.52 1.458 2.516-.454-.494-.933-.996-1.364-1.482a103.84 103.84 0 0 1-4.161-5.157 113.66 113.66 0 0 1-1.811-2.5c.274-1.097 1.309-5.526.917-7.681-.392-2.155-1.458-4.702-3.48-5.706a3.8 3.8 0 0 0-3.081-.256 3.794 3.794 0 0 0-2.248 2.122c-1.153 2.994 2.1 7.782 4.326 9.585.196.157 3.488 2.242 3.503 2.187a.42.42 0 0 0 0-.071c.51.784 1.066 1.568 1.686 2.446 1.16 1.567 2.492 3.401 4.067 5.259a68.632 68.632 0 0 0 5.369 5.76 49.883 49.883 0 0 0 6.858 5.487l.094.055c-.901-.259-3.456-.894-3.66-.917-2.845-.377-8.551.572-9.93 3.472a3.796 3.796 0 0 0 .967 4.379c.402.354.873.619 1.384.778 2.14.768 4.742-.227 6.529-1.411ZM266.998 88.62c1.677 2.805 7.72 6.92 7.728 6.92.008 0 1.505-4.804 1.567-5.126.643-3.66-.266-11.121-3.918-13.065a4.934 4.934 0 0 0-5.72.988 4.917 4.917 0 0 0-1.091 1.74c-1.137 2.727.008 6.16 1.434 8.543ZM326.256 132.934c0 .07 3.919-3.183 4.131-3.418 2.563-2.704 5.917-9.405 3.919-13.081a4.933 4.933 0 0 0-7.187-1.481c-2.422 1.669-3.355 5.165-3.488 7.94-.149 3.26 2.625 10.032 2.625 10.04Z"/><path fill="#9C9C9C" d="M256.741 107.328c2.265 2.171 8.676 4.428 9.185 4.601a87.476 87.476 0 0 0-3.135 11.215 154.4 154.4 0 0 0-1.277 6.717v-2.139c-.345-3.7-3.19-10.66-7.258-11.561a4.937 4.937 0 0 0-3.916.907 4.931 4.931 0 0 0-1.939 3.521c-.344 2.924 1.678 5.933 3.684 7.838 2.007 1.904 7.462 3.989 8.904 4.507-.141.862-.29 1.732-.424 2.594-.65 4.162-1.277 8.316-2.022 12.376-.258 1.426-.572 2.829-.878 4.232v-1.85c-.344-3.707-3.189-10.659-7.257-11.568a4.921 4.921 0 0 0-3.914.913 4.928 4.928 0 0 0-1.933 3.523c-.345 2.915 1.669 5.925 3.676 7.838 2.006 1.912 6.936 3.777 8.621 4.404-.352 1.427-.705 2.853-1.113 4.217-.305.925-.525 1.834-.878 2.751l-.987 2.704c-.682 1.693-1.38 3.449-2.093 5.094-.486 1.137-.972 2.218-1.458 3.308.275-1.419.784-4.209.784-4.444.22-3.715-1.567-11.02-5.423-12.54a4.924 4.924 0 0 0-4.01.305 4.925 4.925 0 0 0-2.449 3.19c-.783 2.83.784 6.114 2.446 8.316 1.865 2.43 7.61 5.533 8.331 5.917a156.115 156.115 0 0 1-2.398 5.173 258.555 258.555 0 0 1-6.035 11.82l2.265 1.614c1.646-3.135 3.746-7.375 6.004-12.391.83-1.826 1.685-3.794 2.539-5.824a51.82 51.82 0 0 0 6.192 1.137c.392 3.135 3.268 8.496 3.644 9.186a193.64 193.64 0 0 1-4.859 2.994 247.339 247.339 0 0 1-11.373 6.434l2.469 1.764a244.341 244.341 0 0 0 10.189-6.09 214.768 214.768 0 0 0 5.322-3.464c.541.595 5.008 5.376 7.838 6.568 2.563 1.073 6.121 1.74 8.668.258a4.923 4.923 0 0 0 1.748-7.124c-2.445-3.378-9.954-3.229-13.497-2.077-.203.07-2.39 1.058-3.754 1.708.745-.501 1.474-.987 2.234-1.512 1.513-1.035 2.994-2.109 4.585-3.253l2.273-1.763c.784-.58 1.513-1.278 2.281-1.921a92.38 92.38 0 0 0 5.118-4.828c.909 1.317 4.201 5.965 6.575 7.423 2.375 1.458 5.792 2.649 8.528 1.567a4.924 4.924 0 0 0 2.92-2.761 4.936 4.936 0 0 0-.107-4.018c-1.904-3.708-9.358-4.703-13.026-4.099-.227.039-2.813.783-4.224 1.191.995-1.011 1.998-2.022 2.97-3.088 2.822-3.057 5.581-6.27 8.34-9.405.846-.972 1.708-1.928 2.555-2.885.321.471 4.107 6.075 6.771 7.713 2.352 1.45 5.792 2.649 8.536 1.567a4.928 4.928 0 0 0 2.805-6.779c-1.904-3.708-9.358-4.703-13.026-4.099-.274.039-3.997 1.097-4.93 1.41 1.881-2.116 3.77-4.208 5.722-6.199a86.975 86.975 0 0 1 8.347-7.556c.149.22 4.076 6.09 6.803 7.767 2.351 1.45 5.792 2.642 8.535 1.568a4.912 4.912 0 0 0 1.752-1.072 4.924 4.924 0 0 0 1.054-5.708c-1.904-3.707-9.358-4.702-13.026-4.091-.243 0-3.072.839-4.413 1.246l-.109-.211a63.811 63.811 0 0 1 9.632-5.965c1.85-.956 3.668-1.763 5.486-2.516.62 1.168 3.512 6.474 5.8 8.253 2.289 1.779 5.487 3.269 8.308 2.501a4.939 4.939 0 0 0 3.794-4.391 4.942 4.942 0 0 0-.259-2.036c-1.489-3.919-8.778-5.706-12.493-5.487-.204 0-2.25.353-3.731.612.784-.322 1.646-.674 2.43-.972 2.947-1.121 5.706-1.967 8.167-2.696 1.395-.408 2.672-.784 3.864-1.051 1.207.831 6.105 4.115 8.911 4.625 2.806.509 6.356.384 8.519-1.607a4.919 4.919 0 0 0 1.723-3.63 4.92 4.92 0 0 0-1.55-3.706c-3.135-2.767-10.416-1.011-13.622.87-.282.164-4.319 3.213-4.256 3.26l.071.047c-1.152.267-2.391.572-3.739.925-2.469.682-5.267 1.474-8.245 2.532a88.342 88.342 0 0 0-9.452 3.919 64.874 64.874 0 0 0-9.852 5.799l-.102.087c.721-.98 2.665-3.786 2.79-4.021 1.756-3.284 3.221-10.651.329-13.653a4.94 4.94 0 0 0-5.746-.84 4.942 4.942 0 0 0-1.582 1.31c-1.897 2.249-1.873 5.87-1.262 8.582.69 3.057 4.789 8.473 5.118 8.904a87.444 87.444 0 0 0-8.809 7.618c-1.623 1.568-3.198 3.229-4.766 4.899.604-.87 1.129-1.654 1.192-1.772 1.755-3.276 3.221-10.651.329-13.645a4.918 4.918 0 0 0-3.765-1.401 4.928 4.928 0 0 0-3.555 1.871c-1.905 2.242-1.881 5.863-1.27 8.575.611 2.711 4.028 7.445 4.945 8.668l-1.787 1.936c-2.837 3.135-5.651 6.231-8.511 9.201-1.003 1.05-2.038 2.046-3.065 3.049.533-.784.98-1.426 1.035-1.567 1.755-3.277 3.221-10.652.329-13.646a4.946 4.946 0 0 0-3.767-1.401 4.933 4.933 0 0 0-3.561 1.864c-1.897 2.249-1.873 5.87-1.262 8.582.611 2.712 3.691 6.983 4.781 8.449-1.082.987-2.163 1.983-3.261 2.9-.783.603-1.45 1.238-2.249 1.81l-2.312 1.709a216.1 216.1 0 0 1-4.554 3.096 272.68 272.68 0 0 1-3.049 1.959 231.77 231.77 0 0 0 3.135-3.284 19.174 19.174 0 0 0 3.324-9.076c.221-.29.415-.599.58-.925a4.942 4.942 0 0 0-.779-5.756 4.94 4.94 0 0 0-1.698-1.156c-3.919-1.466-10.087 2.798-12.399 5.713-.141.173-1.411 2.203-2.195 3.496.345-.831.69-1.63 1.035-2.493a199.744 199.744 0 0 0 2.022-5.243c.306-.901.619-1.81.925-2.727.305-.917.556-1.897.846-2.853.619-2.242 1.137-4.531 1.607-6.858 1.481.603 6.787 2.664 9.578 2.57 2.79-.094 6.27-.987 7.986-3.393a4.944 4.944 0 0 0 .906-3.915 4.938 4.938 0 0 0-2.309-3.288c-3.629-2.046-10.393 1.238-13.12 3.762-.173.165-1.928 2.195-2.869 3.331.267-1.395.549-2.79.784-4.217.658-4.114 1.199-8.292 1.764-12.462.164-1.277.352-2.547.533-3.816.525.219 6.779 2.805 9.906 2.696 2.775-.094 6.27-.988 7.979-3.394a4.927 4.927 0 0 0 .107-5.803 4.934 4.934 0 0 0-1.502-1.4c-3.637-2.038-10.401 1.239-13.128 3.77-.204.188-2.728 3.135-3.331 3.919.4-2.798.784-5.588 1.348-8.324a87.84 87.84 0 0 1 2.814-10.918c.243.102 6.756 2.838 9.961 2.728 2.775-.102 6.27-.988 7.979-3.394a4.926 4.926 0 0 0 .909-3.916 4.923 4.923 0 0 0-2.304-3.294c-3.637-2.038-10.393 1.238-13.128 3.77-.18.164-2.101 2.398-2.994 3.479l-.204-.117a63.159 63.159 0 0 1 4.703-10.283c1.019-1.818 2.085-3.503 3.135-5.118 1.16.635 6.497 3.464 9.405 3.691 2.774.204 6.356-.297 8.308-2.5a4.932 4.932 0 0 0-.604-7.312c-3.386-2.43-10.463.086-13.457 2.304-.157.117-1.677 1.52-2.767 2.563.494-.721.996-1.474 1.49-2.155 1.834-2.556 3.675-4.79 5.314-6.757a148.29 148.29 0 0 1 2.649-3.001c1.465 0 7.367.062 9.985-1.058 2.618-1.121 5.486-3.19 6.223-6.043a4.942 4.942 0 0 0-.57-3.984 4.932 4.932 0 0 0-3.349-2.231c-4.123-.596-9.248 4.906-10.886 8.245-.141.29-1.827 5.063-1.756 5.063h.094c-.784.862-1.685 1.795-2.61 2.837-1.685 1.928-3.582 4.13-5.486 6.654a88.004 88.004 0 0 0-5.745 8.457 64.45 64.45 0 0 0-5.009 10.275l-.047.133c.071-1.222.134-4.632.11-4.898-.345-3.707-3.19-10.66-7.258-11.56a4.929 4.929 0 0 0-5.846 4.428c-.306 2.923 1.708 5.933 3.715 7.853Z"/><path fill="#263238" d="M320.241 239.706v-2.626c0-13.519 17.117-14.107 17.117-23.732 0-4.177-3.402-6.905-8.465-6.905-5.541 0-9.044 3.018-9.044 7.297v1.074c0 1.066-.58 1.567-1.654 1.567l-10.401-.392c-.971 0-1.653-.486-1.653-1.16v-1.073c0-11.757 9.334-19.837 23.05-19.837 13.418 0 22.071 7.586 22.071 18.959 0 16.145-17.407 16.247-17.407 25.08v1.748a1.49 1.49 0 0 1-1.654 1.654h-10.307a1.494 1.494 0 0 1-1.228-.426 1.49 1.49 0 0 1-.425-1.228Zm-.878 15.675c0-4.279 3.793-7.782 8.363-7.782 4.381 0 8.268 3.503 8.268 7.782 0 4.28-3.919 7.783-8.363 7.783-4.443 0-8.268-3.519-8.268-7.798v.015ZM69.408 194.087v-3.854c0-19.845 25.022-20.708 25.022-34.835 0-6.132-4.972-10.135-12.373-10.135-8.1 0-13.222 4.429-13.222 10.71v1.576c0 1.565-.848 2.301-2.417 2.301l-15.204-.575c-1.42 0-2.417-.713-2.417-1.703v-1.576c0-17.256 13.645-29.117 33.695-29.117 19.614 0 32.263 11.136 32.263 27.829 0 23.699-25.446 23.848-25.446 36.814v2.565a2.194 2.194 0 0 1-.623 1.802 2.168 2.168 0 0 1-1.795.626H71.825a2.184 2.184 0 0 1-1.794-.626 2.182 2.182 0 0 1-.623-1.802Zm-1.283 23.009c0-6.282 5.545-11.424 12.225-11.424 6.404 0 12.087 5.142 12.087 11.424 0 6.281-5.729 11.424-12.225 11.424-6.496 0-12.087-5.166-12.087-11.447v.023ZM127.727 95.589v-2.05c0-10.556 13.126-11.015 13.126-18.53 0-3.261-2.609-5.39-6.491-5.39-4.249 0-6.936 2.355-6.936 5.696v.839c0 .832-.445 1.224-1.268 1.224l-7.976-.306c-.745 0-1.268-.38-1.268-.906v-.838c0-9.18 7.158-15.488 17.676-15.488 10.29 0 16.925 5.923 16.925 14.802 0 12.606-13.349 12.686-13.349 19.582v1.365a1.165 1.165 0 0 1-.76 1.235 1.12 1.12 0 0 1-.508.056h-7.903a1.124 1.124 0 0 1-.942-.333 1.165 1.165 0 0 1-.326-.959Zm-.674 12.238c0-3.341 2.909-6.076 6.413-6.076 3.36 0 6.341 2.735 6.341 6.076 0 3.341-3.005 6.077-6.413 6.077-3.408 0-6.341-2.748-6.341-6.089v.012ZM258.225 300.176v-2.993c0-15.411 19.279-16.081 19.279-27.053 0-4.761-3.831-7.871-9.534-7.871-6.241 0-10.187 3.44-10.187 8.318v1.224c0 1.215-.653 1.787-1.862 1.787l-11.715-.447c-1.094 0-1.862-.554-1.862-1.322v-1.224c0-13.401 10.513-22.612 25.962-22.612 15.112 0 24.858 8.648 24.858 21.611 0 18.405-19.606 18.521-19.606 28.59v1.992a1.717 1.717 0 0 1-.48 1.4 1.664 1.664 0 0 1-1.383.485h-11.608a1.658 1.658 0 0 1-1.383-.485 1.709 1.709 0 0 1-.479-1.4Zm-.989 17.868c0-4.878 4.272-8.871 9.419-8.871 4.934 0 9.313 3.993 9.313 8.871 0 4.879-4.414 8.872-9.419 8.872-5.005 0-9.313-4.011-9.313-8.889v.017ZM225.122 299.907c-.055-.165-.11-.329-.173-.494-.062-.164-.109-.337-.172-.501-.063-.165-.11-.33-.173-.494-.062-.165-.109-.337-.172-.502-.063-.164-.11-.329-.172-.494-.063-.164-.11-.337-.173-.501l-.172-.494c-.055-.172-.118-.337-.173-.502l-.172-.493c-.055-.173-.118-.337-.173-.502l-.172-.494c-.055-.172-.118-.337-.172-.501l-.165-.525c-.055-.173-.118-.337-.172-.502l-.181-.494a9.203 9.203 0 0 0-.172-.501c-.063-.165-.11-.33-.173-.494-.062-.165-.109-.337-.172-.502-.063-.164-.11-.329-.172-.494-2.556-7.775-10.456-13.48-19.148-13.48-8.425 0-15.754 4.906-18.81 11.819-.079.157-.149.321-.22.478l-.211.486a8.699 8.699 0 0 0-.22.478c-.07.165-.149.321-.219.478l-.212.478c-.078.165-.149.321-.219.486-.071.165-.149.314-.22.478-.07.165-.149.314-.219.478l-.212.478c-.078.157-.149.322-.219.478-.071.157-.149.322-.22.479l-.211.485a8.732 8.732 0 0 0-.22.479c-.07.164-.149.321-.219.478l-.212.478c-.078.164-.149.321-.219.486-.071.164-.149.313-.22.478l-.211.478c-.079.157-.149.321-.22.478-.07.157-.149.321-.219.486a21.313 21.313 0 0 0-2.022 9.154c0 12.619 10.894 22.933 24.367 22.933 13.183 0 24.649-10.314 24.649-22.933a20.696 20.696 0 0 0-1.246-7.054 4.495 4.495 0 0 0-.172-.556ZM206.476 126.311c-40.419 0-67.937 23.787-67.937 58.477v3.135a3.006 3.006 0 0 0 1.489 2.555c.169.162.353.309.549.439.17.165.356.312.556.438.17.166.357.313.557.439.168.167.355.314.556.439.167.165.351.312.549.439.17.168.356.318.556.447.172.163.358.31.557.439.17.164.357.311.556.439.168.164.352.311.549.439.184.177.386.335.603.47.16.145.331.279.51.4.172.162.358.309.556.439.169.162.353.309.549.438.172.163.358.31.556.439.171.165.357.312.557.439.167.165.351.312.549.439.17.165.356.312.556.439.168.165.351.312.549.439.172.163.358.31.556.439.168.164.352.312.549.439a4.616 4.616 0 0 0 3.292 1.144l25.206.941c2.594 0 4.005-1.176 4.005-3.77v-2.587c0-10.369 8.48-17.666 21.945-17.666 12.25 0 20.495 6.592 20.495 16.726a18.046 18.046 0 0 1-.329 3.44c-12.65 16.585-45.576 23.898-45.576 56.087v7.743c0 3.135 1.717 4.868 4.875 4.868h30.348c3.135 0 4.875-1.717 4.875-4.868v-5.165c0-26.083 51.313-26.373 51.313-73.956 0-33.529-25.52-55.882-65.076-55.882Z"/><path fill="#90CAF9" stroke="#90CAF9" stroke-miterlimit="10" d="M180.102 261.33v-7.744c0-39.846 50.451-41.539 50.451-69.943 0-12.328-10.032-20.378-24.939-20.378-16.342 0-26.648 8.888-26.648 21.499v3.135c0 3.135-1.725 4.593-4.875 4.593l-30.677-1.152c-2.861 0-4.867-1.434-4.867-3.441v-3.135c0-34.689 27.518-58.477 67.937-58.477 39.556 0 65.052 22.353 65.052 55.898 0 47.583-51.313 47.873-51.313 73.956v5.166c0 3.135-1.724 4.867-4.875 4.867h-30.371c-3.158.023-4.875-1.693-4.875-4.844Zm-2.578 46.187c0-12.61 11.176-22.933 24.649-22.933 12.901 0 24.367 10.323 24.367 22.933 0 12.611-11.49 22.894-24.649 22.894-13.489 0-24.367-10.314-24.367-22.894Z"/><path fill="#263238" d="M200.637 356.111c23.639 0 42.802-4.285 42.802-9.57s-19.163-9.57-42.802-9.57c-23.638 0-42.801 4.285-42.801 9.57s19.163 9.57 42.801 9.57Z"/><path fill="#fff" stroke="#263238" stroke-linecap="round" stroke-linejoin="round" d="m167.919 129.485-1.638 3.574s-9.515 1.027-9.515 1.74c0 .713.102 5.627.619 5.831.393.153.829.153 1.222 0l14.014-3.582 1.333-6.34-6.035-1.223Z"/><path fill="#fff" d="M165.253 135.873a34.04 34.04 0 0 1-5.604 3.73c-2.265 1.019-2.351 2.563-1.63 2.563.721 0 7.116-2.68 7.116-2.68s5.808-1.521 6.647-1.983c.838-.462.933-3.033.933-3.033"/><path stroke="#263238" stroke-linecap="round" stroke-linejoin="round" d="M165.253 135.873a34.04 34.04 0 0 1-5.604 3.73c-2.265 1.019-2.351 2.563-1.63 2.563.721 0 7.116-2.68 7.116-2.68s5.808-1.521 6.647-1.983c.838-.462.933-3.033.933-3.033"/><path fill="#7D7D7D" stroke="#263238" stroke-linecap="round" stroke-linejoin="round" d="m176.29 60.812-5.847 44.815-4.068 24.266 9.029 2.131 6.733-28.701 3.189-18.066-9.036-24.446Z"/><path fill="#fff" stroke="#263238" stroke-linecap="round" stroke-linejoin="round" d="m223.473 28.364-3.566-.565-7.305-2.766-.266 8.676 11.325 1.042-.188-6.387Z"/><path fill="#7D7D7D" stroke="#263238" stroke-linecap="round" stroke-linejoin="round" d="M181.784 187.288a109.942 109.942 0 0 0-7.438 9.718c-3.017 4.609-1.951 9.562 1.771 10.809 3.723 1.246 8.496-2.132 9.743-4.789 1.246-2.657.885-4.068 2.829-6.725 1.944-2.657 3.543-5.314 2.837-8.857-.705-3.542-7.83-2.633-9.742-.156Z"/><path fill="#fff" stroke="#263238" stroke-linecap="round" stroke-linejoin="round" d="M185.504 203.692a24.214 24.214 0 0 0-.886-1.701c-2.845-5.008-7.837-4.608-10.972-3.676-2.062 4.209-.886 8.394 2.492 9.523 3.378 1.129 7.736-1.63 9.366-4.146Z"/><path fill="#fff" stroke="#263238" stroke-linecap="round" stroke-linejoin="round" d="M184.616 201.991c-1.058 1.568-2.476 5.847-7.971 4.076a7.573 7.573 0 0 1-3.918-2.469 5.163 5.163 0 0 0 3.425 4.24c3.715 1.238 8.496-2.132 9.742-4.789 1.246-2.657.885-4.068 2.829-6.724 1.944-2.657 3.543-5.314 2.837-8.857 0 4.248-1.567 4.953-3.542 7.258-1.975 2.304-2.336 5.666-3.402 7.265Z"/><path fill="#7D7D7D" stroke="#263238" stroke-linecap="round" stroke-linejoin="round" d="M234.053 187.288a110.134 110.134 0 0 1 7.438 9.718c3.017 4.609 1.951 9.562-1.772 10.809-3.723 1.246-8.496-2.132-9.742-4.789-1.246-2.657-.886-4.068-2.829-6.725-1.944-2.657-3.543-5.314-2.838-8.857.706-3.542 7.799-2.633 9.743-.156Z"/><path fill="#fff" stroke="#263238" stroke-linecap="round" stroke-linejoin="round" d="M230.344 203.692c.243-.533.533-1.097.878-1.701 2.845-5.008 7.837-4.608 10.972-3.676 2.062 4.209.886 8.394-2.492 9.523-3.378 1.129-7.736-1.63-9.358-4.146Z"/><path fill="#fff" stroke="#263238" stroke-linecap="round" stroke-linejoin="round" d="M231.223 201.991c1.058 1.568 2.477 5.847 7.971 4.076a7.576 7.576 0 0 0 3.919-2.469 5.164 5.164 0 0 1-3.425 4.24c-3.715 1.238-8.496-2.132-9.742-4.789-1.246-2.657-.886-4.068-2.83-6.724-1.943-2.657-3.542-5.314-2.837-8.857 0 4.248 1.568 4.953 3.543 7.258 1.975 2.304 2.335 5.666 3.401 7.265Z"/><path fill="#263238" stroke="#263238" stroke-linecap="round" stroke-linejoin="round" d="M242.36 126.178c0-3.19-5.486-6.733-5.486-6.733-8.269-8.41-23.192-7.297-28.702-6.544-5.486-.784-20.425-1.866-28.693 6.544 0 0-5.487 3.543-5.487 6.733 0 3.189 6.913 60.757 6.913 60.757s-.18 3.01 4.781 3.362c4.961.353 7.054-2.476 7.054-2.476l1.951-48.711s7.971-5.675 9.406-5.847c.517-.071 1.191-.181 1.943-.275v.094a10.448 10.448 0 0 1 4.256 0v-.094c.784.094 1.419.204 1.944.275 1.419.172 9.405 5.847 9.405 5.847l1.952 48.711s2.124 2.829 7.054 2.476c4.929-.352 4.781-3.362 4.781-3.362s6.928-57.568 6.928-60.757Z"/><path stroke="#707070" stroke-linecap="round" stroke-linejoin="round" d="M221.638 139.11s-1.065-11.694 4.076-16.122M194.714 139.11s.533-9.743-.533-13.285c-1.066-3.543-2.837-4.961-2.837-4.961M201.266 115.902s5.666 6.553 6.732 12.047M213.66 116.279s-3.19 3.542-3.543 6.199"/><path fill="#90CAF9" stroke="#263238" stroke-linecap="round" stroke-linejoin="round" d="M205.696 47.354s-5.134-.713-6.905 1.058c-1.772 1.772-7.799 8.3-7.799 8.3l3.19 56.33s7.266 2.837 13.465 2.837c6.2 0 13.285-2.304 14.892-3.543 1.606-1.238.18-61.643.18-61.643s-13.159-3.872-17.023-3.339Z"/><path fill="#7D7D7D" stroke="#263238" stroke-linecap="round" stroke-linejoin="round" d="M215.079 48.593a64.58 64.58 0 0 1 8.144-.714c3.542 0 7.054.18 7.054.18l8.856-8.503-17.823-4.076 1.419-8.143s13.104-.886 19.657.353c6.552 1.238 16.827 4.428 17.36 4.428.533 0 1.238 1.951.705 3.362-.532 1.411-17.195 19.845-22.172 24.626-3.256 3.19-6.33 6.56-9.209 10.095l-2.273 39.502s5.846 3.19 6.912 4.248c1.066 1.058 2.305 5.314 2.305 5.314s-10.808-4.429-13.646-4.781c-2.837-.353-4.6-.533-5.133-1.568-.533-1.034-4.962-48.358-4.962-48.358l.181-15.056s-.032-.91 2.625-.91Z"/><path stroke="#263238" stroke-linecap="round" stroke-linejoin="round" d="m225.71 72.858-9.569 1.238.885 3.543 4.789 1.238 4.601-2.124-.706-3.895ZM231.194 51.602l-2.124 18.599 5.495-15.761M239.172 39.556s4.428.886 11.161-1.771M243.781 40.794a40.03 40.03 0 0 0 8.677-.705"/><path fill="#fff" stroke="#263238" stroke-linecap="round" stroke-linejoin="round" d="m199.672 47.174.886 12.932a8.51 8.51 0 0 0 6.905 3.362c4.428-.172 4.961-3.362 4.961-3.362V49.478l-12.752-2.304Z"/><path fill="#7D7D7D" stroke="#263238" stroke-linecap="round" stroke-linejoin="round" d="m212.603 53.907-.353 10.643 3.723-5.847s4.075 5.134 5.134 4.961c1.058-.172-.706-2.304-1.059-4.248-.352-1.943-3.37-8.864-3.722-10.808-.353-1.943-3.723-2.304-3.919-1.418a9.067 9.067 0 0 0 0 2.304l.196 4.413ZM200.376 63.468s.705 49.597-1.066 50.161c-1.771.565-8.857.714-13.324 2.838-4.468 2.124-6.552 3.009-6.552 3.009s2.124-5.133 4.608-7.438a24.453 24.453 0 0 1 5.486-3.722l-4.6-23.733s-8.504-22.502-8.684-23.74c-.181-1.239 16.122-10.448 19.484-12.047 3.362-1.599 4.256-.172 4.256-.172l.392 14.844Z"/><path fill="#7D7D7D" stroke="#263238" stroke-linecap="round" stroke-linejoin="round" d="M195.952 46.288s-4.248 13.465-4.608 15.237c-.361 1.771 0 1.771 1.246.525s4.428-4.248 4.428-4.248l3.362 5.666-.18-10.447v-6.027s-.172-2.477-4.248-.706Z"/><path stroke="#263238" stroke-linecap="round" stroke-linejoin="round" d="M187.633 75.343h10.448l-.172 4.248-4.609 1.59-5.847-1.59.18-4.248Z"/><path fill="#fff" stroke="#263238" stroke-linecap="round" stroke-linejoin="round" d="M216.328 28.756s2.476 10.8 3.009 12.54c.533 1.74-2.829 8.684-3.919 10.275a5.146 5.146 0 0 1-3.918 2.477c-1.239 0-7.971-2.297-9.57-3.363a59.759 59.759 0 0 1-3.182-2.304 4.257 4.257 0 0 1-4.609-.705c-2.124-1.952-4.961-4.256-4.256-5.847a4.164 4.164 0 0 1 4.076-2.477c1.952 0 1.246-.18 1.246-.18s-3.542-5.134-3.542-9.21c0-4.075 7.61-7.053 12.038-7.053 3.062.127 6.07.849 8.857 2.124l3.77 3.723Z"/><path stroke="#263238" stroke-linecap="round" stroke-linejoin="round" d="m210.13 32.823 3.189 6.027-3.189 2.124-1.419-1.77M215.967 38.318s.173 1.418-1.951 3.722"/><path fill="#263238" d="M206.763 35.041c0 .831-.361 1.505-.784 1.505-.423 0-.784-.674-.784-1.505 0-.83.361-1.505.784-1.505.423 0 .784.675.784 1.505ZM212.339 33.709c.441 0 .799-.674.799-1.505 0-.831-.358-1.505-.799-1.505-.442 0-.8.674-.8 1.505 0 .831.358 1.505.8 1.505Z"/><path fill="#263238" stroke="#263238" stroke-linecap="round" stroke-linejoin="round" d="M197.187 19.538s-11.145 4.076-11.513 9.218c-.369 5.141 9.922 12.218 10.455 13.104.533.886 2.124-1.066 2.124-1.066a4.116 4.116 0 0 1-.713-3.362c.533-1.772 2.837-3.919 2.837-4.781 0-.862-2.657.705-2.657-1.952s6.552-4.248 10.448-4.075c3.895.172 7.265 6.732 10.103 3.542 2.837-3.19-1.247-4.067-1.247-4.067s5.487-.714 5.487-3.543c0-2.83-2.838-4.789-4.076-4.789-1.238 0-4.601 2.132-4.601-.172 0-2.305 3.363-3.37.173-7.054s-7.258 0-7.258 1.418c0 1.42-1.066 4.068-1.771 4.068-.706 0-2.837-3.182-5.314-1.41a6.57 6.57 0 0 0-2.477 4.921Z"/><path stroke="#263238" stroke-linecap="round" stroke-linejoin="round" d="m201.797 33.184 5.666-2.132M208.358 28.575a2.436 2.436 0 0 1 .25-1.63"/><path stroke="#fff" stroke-linecap="round" stroke-linejoin="round" d="M208.609 26.93c.4-.784 1.301-1.796 3.292-2.618"/></svg>